<?xml version="1.0" encoding="utf-8"?>
<svg version="1.1" id="Layer_1" xmlns="http://www.w3.org/2000/svg" xmlns:xlink="http://www.w3.org/1999/xlink"
	 width="245px" height="145px" viewBox="0 0 245 145">
<g>
	<g fill="#553F2E">
		<path d="M3.44,102.883c-0.351-1.05-0.91-1.26-1.961-1.26H0.5v-7.562h6.091c2.94,0,4.34,0.91,5.04,3.641
			l5.251,19.812c0.49,1.89,0.7,3.78,0.7,3.78h0.14c0,0,0.28-1.891,0.84-3.78l6.581-23.312h7.841l6.65,23.312
			c0.561,1.89,0.771,3.78,0.771,3.78h0.14c0,0,0.21-1.891,0.7-3.78l5.181-19.812c0.7-2.73,2.1-3.641,5.04-3.641h6.091v7.562
			h-0.979c-1.051,0-1.541,0.21-1.961,1.26l-8.541,26.883H36.063l-6.091-20.372c-0.56-1.891-0.84-3.851-0.84-3.851h-0.14
			c0,0-0.351,1.96-0.91,3.851l-6.021,20.372H11.981L3.44,102.883z"/>
		<path d="M64.34,103.163c0-1.051-0.561-1.54-1.54-1.54h-2.801v-7.562h8.471c3.291,0,4.69,1.471,4.69,4.761v21.912
			c0,0.98,0.561,1.54,1.541,1.54h2.8v7.491H69.03c-3.29,0-4.69-1.4-4.69-4.761V103.163z"/>
		<path d="M84.989,101.133h-4.41v-7.071h4.41v-1.05c0-11.691,9.591-13.231,14.562-13.231
			c1.82,0,3.011,0.21,3.011,0.21v7.561c0,0-0.771-0.14-1.82-0.14c-2.521,0-6.861,0.63-6.861,5.811v0.84h7.631v7.071H93.88v28.633
			h-8.891V101.133z"/>
		<path d="M111.939,136.977c2.45,0,4.62-1.471,5.88-4.551l1.19-2.73l-11.901-26.812
			c-0.42-1.05-0.91-1.26-1.89-1.26h-1.051v-7.562h5.881c2.521,0,3.78,0.91,4.69,3.36l7.001,17.853c0.7,1.82,1.26,4.76,1.26,4.76
			h0.141c0,0,0.56-2.939,1.189-4.76l6.091-17.853c0.84-2.45,2.311-3.36,4.761-3.36h6.021v7.562h-1.05
			c-1.051,0-1.61,0.21-2.03,1.26l-12.812,32.273c-2.521,6.44-7.561,9.311-12.882,9.311c-5.601,0-9.03-3.64-9.03-3.64l3.43-6.301
			C106.828,134.526,108.999,136.977,111.939,136.977z"/>
		<path d="M58.701,79.825l8.696,8.696l8.697-8.696c-2.225-2.229-5.299-3.605-8.697-3.605
			C64.001,76.22,60.927,77.596,58.701,79.825z"/>
		<path d="M41.318,62.441l8.688,8.684c4.45-4.449,10.602-7.203,17.392-7.203c6.792,0,12.942,2.754,17.394,7.203
			l8.688-8.684c-6.682-6.684-15.905-10.82-26.081-10.82C57.224,51.621,47.999,55.758,41.318,62.441z"/>
		<path d="M23.93,45.054l8.681,8.677c8.903-8.903,21.203-14.406,34.787-14.406
			c13.586,0,25.886,5.503,34.787,14.406l8.681-8.677C99.729,33.918,84.354,27.021,67.397,27.021
			C50.443,27.021,35.067,33.918,23.93,45.054z"/>
	</g>
	<g fill="#B3CC1F">
		<path d="M67.397,14.982c19.014,0,36.348,7.191,49.436,19c0.575-2.178,0.898-4.457,0.898-6.815
			c0-14.728-11.938-26.667-26.666-26.667c-10.297,0-19.223,5.839-23.668,14.383C62.954,6.339,54.028,0.5,43.731,0.5
			c-14.729,0-26.666,11.939-26.666,26.667c0,2.358,0.323,4.638,0.898,6.815C31.053,22.173,48.386,14.982,67.397,14.982z"/>

		<path d="M149.249,103.163c0-1.051-0.56-1.54-1.54-1.54h-2.801v-7.562h8.191c3.15,0,4.69,1.471,4.69,3.991v1.05
			c0,0.77-0.07,1.54-0.07,1.54h0.141c1.68-3.5,5.95-7.421,11.551-7.421c5.391,0,8.891,2.521,10.432,7.351h0.14
			c1.89-3.85,6.511-7.351,12.181-7.351c7.421,0,11.691,4.2,11.691,13.581v13.932c0,0.98,0.561,1.54,1.54,1.54h2.73v7.491h-8.4
			c-3.36,0-4.761-1.4-4.761-4.761v-16.521c0-4.061-0.771-7.141-4.9-7.141c-4.41,0-7.561,3.71-8.541,8.19
			c-0.42,1.4-0.561,2.871-0.561,4.551v15.682h-8.891v-21.282c0-3.851-0.56-7.141-4.83-7.141c-4.48,0-7.491,3.71-8.611,8.261
			c-0.35,1.4-0.56,2.87-0.56,4.48v15.682h-8.821V103.163z"/>
		<path d="M228.422,93.222c10.221,0,15.821,7.491,15.821,16.942c0,1.05-0.21,3.29-0.21,3.29h-24.643
			c0.7,6.301,5.321,9.591,10.712,9.591c5.74,0,10.011-3.99,10.011-3.99l3.71,6.16c0,0-5.46,5.391-14.352,5.391
			c-11.831,0-19.182-8.541-19.182-18.691C210.29,100.923,217.711,93.222,228.422,93.222z M235.143,107.293
			c-0.14-4.271-3.08-7.211-6.721-7.211c-4.551,0-7.771,2.73-8.751,7.211H235.143z"/>
	</g>
</g>
</svg>
